<?xml version="1.0" encoding="UTF-8" standalone="no"?>
<!-- Created using Karbon, part of Calligra: http://www.calligra.org/karbon -->

<svg
   width="51.2pt"
   height="51.2pt"
   version="1.1"
   id="svg9"
   sodipodi:docname="icon.svg"
   inkscape:version="1.1.2 (0a00cf5339, 2022-02-04)"
   inkscape:export-filename="/home/axel/Projects/Python/usub-gtk/usr/share/icons/hicolor/scalable/apps/cu.axel.USub.png"
   inkscape:export-xdpi="89.999992"
   inkscape:export-ydpi="89.999992"
   xmlns:inkscape="http://www.inkscape.org/namespaces/inkscape"
   xmlns:sodipodi="http://sodipodi.sourceforge.net/DTD/sodipodi-0.dtd"
   xmlns="http://www.w3.org/2000/svg"
   xmlns:svg="http://www.w3.org/2000/svg">
  <sodipodi:namedview
     id="namedview11"
     pagecolor="#ffffff"
     bordercolor="#666666"
     borderopacity="1.0"
     inkscape:pageshadow="2"
     inkscape:pageopacity="0.0"
     inkscape:pagecheckerboard="0"
     inkscape:document-units="pt"
     showgrid="false"
     inkscape:zoom="7.6025389"
     inkscape:cx="33.672962"
     inkscape:cy="35.580219"
     inkscape:window-width="1366"
     inkscape:window-height="692"
     inkscape:window-x="0"
     inkscape:window-y="0"
     inkscape:window-maximized="1"
     inkscape:current-layer="layer0" />
  <defs
     id="defs2" />
  <g
     id="layer0">
    <circle
       id="circle2"
       r="21.59996pt"
       cx="34.133335"
       cy="34.133335"
       fill="#e01b24"
       style="fill:#d40000;fill-opacity:1;stroke-width:3.7796"
       inkscape:export-filename="/home/axel/Projects/Mint/cinnamon-gpu-monitor/gpumonitor@axel358/icon.png"
       inkscape:export-xdpi="106.66685"
       inkscape:export-ydpi="106.66685" />
    <path
       d="m 14.133334,20.726733 h 6.199983 v 24.83928 h -2.695673 v -2.233447 h -1.101627 v -6.377471 h 1.101627 v -4.636658 h -1.101627 v -6.377304 h 1.101627 v -2.51871 h -3.50431 z m 40,8.45764 v 14.059962 c 0,1.190878 -0.965329,2.156904 -2.156374,2.156904 h -0.0026 v 2.138696 H 38.20483 v -2.138696 h -1.306555 v 2.138696 H 23.128725 V 45.401239 H 21.921383 V 27.028165 h 30.055229 c 1.191044,0 2.156373,0.965329 2.156373,2.156208 z M 24.864583,45.29413 h -0.686582 v 1.5448 h 0.686582 z m 1.373161,0 h -0.686581 v 1.5448 h 0.686581 z m 1.373161,0 h -0.68658 v 1.5448 h 0.68658 z m 1.373162,0 h -0.686581 v 1.5448 h 0.686581 z m 0.423277,-9.052053 h -1.7144 v 0.673703 h 0.954182 v 0.333511 c -0.369213,0.431521 -0.782698,0.647108 -1.240826,0.647108 -0.200129,0 -0.385859,-0.04103 -0.556982,-0.123613 -0.171303,-0.08218 -0.319096,-0.194477 -0.443535,-0.336774 -0.124646,-0.142296 -0.22262,-0.310335 -0.29369,-0.503781 -0.0711,-0.193445 -0.106583,-0.401301 -0.106583,-0.623754 0,-0.213523 0.03226,-0.415897 0.09664,-0.607111 0.06451,-0.191032 0.155678,-0.360283 0.2736,-0.507032 0.117949,-0.146593 0.260219,-0.262283 0.427058,-0.346903 0.166659,-0.08439 0.350156,-0.126709 0.550297,-0.126709 0.253342,0 0.487988,0.0622 0.70391,0.186748 0.215586,0.124645 0.383458,0.304671 0.503613,0.540335 l 0.687266,-0.507032 c -0.160325,-0.315832 -0.399254,-0.567122 -0.717305,-0.753871 -0.318064,-0.186916 -0.699456,-0.280297 -1.144013,-0.280297 -0.329226,0 -0.633716,0.06336 -0.913845,0.190014 -0.280296,0.126837 -0.523858,0.297973 -0.730516,0.513741 -0.206839,0.215756 -0.369214,0.467045 -0.487136,0.753859 -0.117948,0.286825 -0.176619,0.592697 -0.176619,0.917276 0,0.342596 0.05883,0.66151 0.176619,0.957265 0.117949,0.29591 0.277897,0.552866 0.480439,0.770517 0.202193,0.217987 0.44009,0.389289 0.713703,0.513728 0.2736,0.124646 0.56591,0.186749 0.877278,0.186749 0.502568,0 0.94267,-0.188981 1.3208,-0.56711 v 0.533639 h 0.760387 v -2.434267 z m 0.949884,9.052053 h -0.686581 v 1.5448 h 0.686581 z m 1.373162,0 h -0.686582 v 1.5448 h 0.686582 z m 1.373161,0 h -0.68658 v 1.5448 h 0.68658 z m 0.273085,-11.35364 h -3.182131 v 4.736541 h 0.920531 v -1.96138 h 1.881405 v -0.747174 h -1.881226 v -1.220736 h 2.261588 V 33.94049 Z m 1.100077,11.35364 h -0.686581 v 1.5448 h 0.686581 z m 1.373162,0 h -0.686582 v 1.5448 h 0.686582 z m 0.322,-8.951989 1.687793,-2.401651 h -0.994 l -1.174053,1.761251 -1.180914,-1.761251 h -1.000529 l 1.687792,2.401651 -1.634413,2.334723 h 1.000697 l 1.127367,-1.694478 1.120672,1.694478 h 0.993988 z m 3.76898,8.951989 h -0.68658 v 1.5448 h 0.68658 z m 1.373161,0 h -0.68658 v 1.5448 h 0.68658 z m 1.373161,0 h -0.68658 v 1.5448 h 0.68658 z m 1.373163,0 h -0.686582 v 1.5448 h 0.686582 z m 1.373162,0 H 44.74692 v 1.5448 h 0.686582 z m 1.373161,0 h -0.686582 v 1.5448 h 0.686582 z m 1.373161,0 h -0.686581 v 1.5448 h 0.686581 z m 1.373161,0 h -0.686581 v 1.5448 h 0.686581 z m 1.373162,0 h -0.686582 v 1.5448 h 0.686582 z m 0.578955,-8.727639 c 0,-3.317564 -2.689678,-6.007589 -6.007575,-6.007589 -3.317897,0 -6.007576,2.690025 -6.007576,6.007589 0,3.317379 2.689679,6.007573 6.007576,6.007573 3.317897,0 6.007575,-2.690194 6.007575,-6.007573 z m -2.772414,0.09561 c 0.147793,-0.07961 0.295755,-0.158594 0.441136,-0.237033 0.144349,-0.08219 0.286644,-0.163239 0.424128,-0.241678 0.138,-0.07897 0.271718,-0.154826 0.397021,-0.233445 0.01029,-0.0064 0.0191,-0.01161 0.02864,-0.01781 -0.159277,-1.147278 -0.744077,-2.158956 -1.5908,-2.86871 -0.01161,0.01574 -0.024,0.0329 -0.03639,0.04942 -0.05264,0.07278 -0.111874,0.153793 -0.176451,0.242542 -0.06903,0.08929 -0.143328,0.185717 -0.222452,0.288193 -0.07754,0.102972 -0.165472,0.209407 -0.256272,0.319936 -0.09097,0.111097 -0.18503,0.225549 -0.280464,0.342608 -0.09974,0.113932 -0.200826,0.230346 -0.30227,0.347237 -3.48e-4,0 -6.84e-4,5.16e-4 -0.0011,0.0013 0.0064,-0.112903 0.01407,-0.2276 0.02142,-0.343806 0.01029,-0.164258 0.0129,-0.331265 0.01871,-0.498284 0.0051,-0.167691 0.01029,-0.335226 0.016,-0.500167 8.64e-4,-0.166672 0.0013,-0.330078 0.0026,-0.488672 10e-4,-0.159123 0.0013,-0.313085 -0.0039,-0.460697 0,-0.01161 -5.17e-4,-0.02231 -8.53e-4,-0.03393 -0.529522,-0.214735 -1.107456,-0.333161 -1.713703,-0.333161 -0.550646,0 -1.078102,0.09729 -1.567123,0.275317 0.009,0.01871 0.01703,0.03844 0.02568,0.05779 0.03626,0.08208 0.07729,0.173872 0.121807,0.274633 0.04271,0.104 0.08929,0.216787 0.138168,0.336426 0.05046,0.118839 0.09883,0.247845 0.148995,0.381728 0.05058,0.134917 0.102971,0.273097 0.155857,0.413846 0.04942,0.143833 0.09949,0.289729 0.149845,0.435626 1.42e-4,6.97e-4 3.48e-4,8.64e-4 8.52e-4,0.0026 -0.09458,-0.06283 -0.19,-0.126193 -0.287497,-0.190865 -0.136981,-0.09032 -0.279961,-0.176284 -0.421909,-0.265535 -0.142465,-0.088 -0.285098,-0.17662 -0.42533,-0.263652 -0.143844,-0.08361 -0.28511,-0.166322 -0.422078,-0.246141 -0.137147,-0.08013 -0.27,-0.157563 -0.400451,-0.227085 -0.01029,-0.0051 -0.01922,-0.01029 -0.02917,-0.01613 -0.873161,0.682634 -1.491251,1.675252 -1.68951,2.812568 0.01974,0.0026 0.04039,0.0039 0.06117,0.0064 0.08878,0.009 0.189149,0.02039 0.29849,0.03213 0.111612,0.01471 0.232414,0.03122 0.360452,0.04878 0.127872,0.01522 0.263987,0.03845 0.405253,0.06181 0.141444,0.02349 0.288026,0.04722 0.436502,0.07187 0.148981,0.02903 0.300374,0.05858 0.451768,0.088 6.84e-4,0 0.0011,0 0.0026,0 -0.101292,0.05046 -0.20391,0.101692 -0.308788,0.153795 -0.146748,0.07342 -0.292309,0.15431 -0.440607,0.232412 -0.147793,0.07949 -0.295741,0.158426 -0.441134,0.236864 -0.144517,0.08219 -0.286813,0.163239 -0.42413,0.242196 -0.138,0.07845 -0.271716,0.154825 -0.396838,0.233094 -0.01029,0.0064 -0.01922,0.01161 -0.02903,0.01754 0.159458,1.147614 0.744258,2.158957 1.590981,2.868879 0.01161,-0.01574 0.02426,-0.03278 0.03639,-0.04969 0.05264,-0.07239 0.111874,-0.153613 0.176452,-0.242529 0.0689,-0.08929 0.143497,-0.185549 0.222451,-0.287845 0.07754,-0.10336 0.165471,-0.209755 0.256271,-0.319947 0.09097,-0.111223 0.184865,-0.225718 0.280465,-0.342259 0.09974,-0.114194 0.200825,-0.230864 0.302272,-0.347239 1.53e-4,-3.61e-4 6.82e-4,-0.0011 0.0011,-0.0013 -0.0064,0.112777 -0.01408,0.227253 -0.02129,0.343806 -0.01028,0.164259 -0.0129,0.330929 -0.01883,0.498286 -0.0051,0.167522 -0.01029,0.335392 -0.01613,0.500165 -6.83e-4,0.166324 -0.0011,0.330247 -0.0013,0.488506 -10e-4,0.15929 -0.0013,0.312916 0.0039,0.460694 1.43e-4,0.01161 6.85e-4,0.02246 6.85e-4,0.03382 0.529522,0.21489 1.107625,0.333328 1.71387,0.333328 0.550634,0 1.078103,-0.09717 1.566955,-0.275484 -0.009,-0.01858 -0.01664,-0.03832 -0.02554,-0.05779 -0.03626,-0.08168 -0.07729,-0.173703 -0.121807,-0.274297 -0.04271,-0.104126 -0.08929,-0.217124 -0.138013,-0.336245 -0.05046,-0.118968 -0.0991,-0.248374 -0.148979,-0.38191 -0.05058,-0.134569 -0.103097,-0.273433 -0.155858,-0.414181 -0.04954,-0.143664 -0.09974,-0.289741 -0.150013,-0.435291 -1.56e-4,-5.14e-4 -3.5e-4,-0.0011 -6.86e-4,-0.0026 0.09445,0.0631 0.189834,0.12618 0.28733,0.191031 0.136801,0.08993 0.279961,0.175948 0.421909,0.2652 0.142464,0.08826 0.285097,0.176787 0.425331,0.263987 0.143843,0.08361 0.285108,0.166324 0.421908,0.246143 0.137318,0.07987 0.27,0.157573 0.400453,0.226735 0.01029,0.0064 0.01936,0.01029 0.02916,0.01626 0.87333,-0.6828 1.491252,-1.674916 1.689678,-2.8124 -0.01974,-0.0026 -0.04039,-0.0039 -0.06117,-0.0064 -0.0889,-0.009 -0.188981,-0.02013 -0.29849,-0.03174 -0.111611,-0.0151 -0.232582,-0.03136 -0.360451,-0.04929 -0.128,-0.01497 -0.263988,-0.03793 -0.405254,-0.06129 -0.141443,-0.02349 -0.288025,-0.04736 -0.436503,-0.07213 -0.148979,-0.02903 -0.300374,-0.05871 -0.451767,-0.088 -6.83e-4,0 -0.0011,0 -0.0026,0 0.101291,-0.05083 0.203924,-0.101817 0.30862,-0.154143 0.146928,-0.0729 0.292657,-0.154129 0.440955,-0.232065 z"
       id="path2"
       style="fill:#ffffff;stroke-width:0.171646" />
  </g>
</svg>
